STARTFONT 2.1
COMMENT 
COMMENT ipa-10x20b.bdf, a part of Kappa 20dot Fonts Version 0.396 (2003/10/06).
COMMENT 
COMMENT Based on the glyph designs by NAGAO Sadakazu (snagao@tkb.att.ne.jp),
COMMENT assembled and modified by KANOU Hiroki (kanou@khdd.net).
COMMENT For more information, see http://khdd.net/20dot.fonts/
COMMENT 
COMMENT THIS FONT IS PUBLIC DOMAIN: YOU CAN USE, COPY, MODIFY, EVEN COPYRIGHT
COMMENT AS YOURS AND SELL THIS FONT, BUT YOU CAN'T PROHIBIT ANYONE FROM FREE
COMMENT CIRCULATION OF THIS FONT AND ITS DESCENDANTS INDEPENDENT OF YOUR
COMMENT VARIATIONS AND/OR DERIVATIONS. SEE `README' (IN JAPANESE) FOR DETAILS.
COMMENT 
FONT -Kappa-Fixed-Bold-R-Normal--20-190-75-75-C-100-MuleIPA-1
SIZE 20 75 75
FONTBOUNDINGBOX 10 20 0 -3
STARTPROPERTIES 19
FONT_ASCENT 17
FONT_DESCENT 3
COPYRIGHT "public domain"
FONTNAME_REGISTRY ""
FOUNDRY "Kappa"
FAMILY_NAME "Fixed"
WEIGHT_NAME "Bold"
SLANT "R"
SETWIDTH_NAME "Normal"
ADD_STYLE_NAME ""
PIXEL_SIZE 20
POINT_SIZE 190
RESOLUTION_X 75
RESOLUTION_Y 75
SPACING "C"
AVERAGE_WIDTH 100
CHARSET_REGISTRY "MuleIPA"
CHARSET_ENCODING "1"
DEFAULT_CHAR 0
ENDPROPERTIES
CHARS 67
STARTCHAR LOWER-CASE_I
ENCODING 160
SWIDTH 505 0
DWIDTH 10 0
BBX 10 20 0 -3
BITMAP
0000
0000
0000
0c00
0c00
0000
0000
3c00
0c00
0c00
0c00
0c00
0c00
0c00
0c00
0c00
7f80
0000
0000
0000
ENDCHAR
STARTCHAR SMALL_CAP_I
ENCODING 161
SWIDTH 505 0
DWIDTH 10 0
BBX 10 20 0 -3
BITMAP
0000
0000
0000
0000
0000
0000
0000
7f80
0c00
0c00
0c00
0c00
0c00
0c00
0c00
0c00
7f80
0000
0000
0000
ENDCHAR
STARTCHAR LOWER_CASE_E
ENCODING 162
SWIDTH 505 0
DWIDTH 10 0
BBX 10 20 0 -3
BITMAP
0000
0000
0000
0000
0000
0000
0000
1e00
3300
6180
6180
7f80
6000
6000
6080
3100
1e00
0000
0000
0000
ENDCHAR
STARTCHAR EPSILON
ENCODING 163
SWIDTH 505 0
DWIDTH 10 0
BBX 10 20 0 -3
BITMAP
0000
0000
0000
0000
0000
0000
0000
1e00
3100
6080
3000
1e00
3000
6000
6080
3100
1e00
0000
0000
0000
ENDCHAR
STARTCHAR ASH
ENCODING 164
SWIDTH 505 0
DWIDTH 10 0
BBX 10 20 0 -3
BITMAP
0000
0000
0000
0000
0000
0000
0000
7b80
cec0
cc40
0c40
1fc0
6c00
cc00
cc00
ce40
7380
0000
0000
0000
ENDCHAR
STARTCHAR LOWER-CASE_A
ENCODING 165
SWIDTH 505 0
DWIDTH 10 0
BBX 10 20 0 -3
BITMAP
0000
0000
0000
0000
0000
0000
0000
1f00
7180
6180
0180
0780
3980
6180
6180
6380
3dc0
0000
0000
0000
ENDCHAR
STARTCHAR BARRED_I
ENCODING 166
SWIDTH 505 0
DWIDTH 10 0
BBX 10 20 0 -3
BITMAP
0000
0000
0000
0c00
0c00
0000
0000
3c00
0c00
0c00
0c00
7f80
0c00
0c00
0c00
0c00
7f80
0000
0000
0000
ENDCHAR
STARTCHAR SCHWA
ENCODING 167
SWIDTH 505 0
DWIDTH 10 0
BBX 10 20 0 -3
BITMAP
0000
0000
0000
0000
0000
0000
0000
1e00
2300
4180
0180
0180
7f80
6180
6180
3300
1e00
0000
0000
0000
ENDCHAR
STARTCHAR TURNED_A
ENCODING 168
SWIDTH 505 0
DWIDTH 10 0
BBX 10 20 0 -3
BITMAP
0000
0000
0000
0000
0000
0000
0000
ef00
7180
6180
6180
6700
7800
6000
6180
6380
3e00
0000
0000
0000
ENDCHAR
STARTCHAR TURNED_M
ENCODING 169
SWIDTH 505 0
DWIDTH 10 0
BBX 10 20 0 -3
BITMAP
0000
0000
0000
0000
0000
0000
0000
ed80
6d80
6d80
6d80
6d80
6d80
6d80
6d80
6d80
36c0
0000
0000
0000
ENDCHAR
STARTCHAR GAMMA
ENCODING 170
SWIDTH 505 0
DWIDTH 10 0
BBX 10 20 0 -3
BITMAP
0000
0000
0000
0000
0000
0000
0000
6080
b140
3100
1a00
1a00
0c00
0c00
1200
1200
0c00
0000
0000
0000
ENDCHAR
STARTCHAR TURNED_V
ENCODING 171
SWIDTH 505 0
DWIDTH 10 0
BBX 10 20 0 -3
BITMAP
0000
0000
0000
0000
0000
0000
0000
0c00
0c00
1600
1600
2300
2300
2300
4180
4180
f3c0
0000
0000
0000
ENDCHAR
STARTCHAR SCRIPT_A
ENCODING 172
SWIDTH 505 0
DWIDTH 10 0
BBX 10 20 0 -3
BITMAP
0000
0000
0000
0000
0000
0000
0000
1d80
3380
3180
6180
6180
6180
6180
6380
3580
19c0
0000
0000
0000
ENDCHAR
STARTCHAR LOWER-CASE_Y
ENCODING 173
SWIDTH 505 0
DWIDTH 10 0
BBX 10 20 0 -3
BITMAP
0000
0000
0000
0000
0000
0000
0000
f380
6100
6100
3100
3200
1a00
1a00
0c00
0c00
0400
c800
c800
7000
ENDCHAR
STARTCHAR SMALL_CAP_Y
ENCODING 174
SWIDTH 505 0
DWIDTH 10 0
BBX 10 20 0 -3
BITMAP
0000
0000
0000
0000
0000
0000
0000
f380
6100
2100
3200
1200
1c00
0c00
0c00
0c00
3f00
0000
0000
0000
ENDCHAR
STARTCHAR SLASHED_O
ENCODING 175
SWIDTH 505 0
DWIDTH 10 0
BBX 10 20 0 -3
BITMAP
0000
0000
0000
0000
0000
0300
0300
1e00
3700
6780
6580
6d80
6d80
6980
7980
3b00
1e00
3000
3000
0000
ENDCHAR
STARTCHAR O-E_LIGATURE
ENCODING 176
SWIDTH 505 0
DWIDTH 10 0
BBX 10 20 0 -3
BITMAP
0000
0000
0000
0000
0000
0000
0000
7b80
cec0
cc40
cc40
cfc0
cc00
cc00
cc00
ce40
7b80
0000
0000
0000
ENDCHAR
STARTCHAR SMALL_CAP_O-E
ENCODING 177
SWIDTH 505 0
DWIDTH 10 0
BBX 10 20 0 -3
BITMAP
0000
0000
0000
0000
0000
0000
0000
77c0
ccc0
cc40
cc80
cf80
cc80
cc00
cc40
ccc0
77c0
0000
0000
0000
ENDCHAR
STARTCHAR BARRED_U
ENCODING 178
SWIDTH 505 0
DWIDTH 10 0
BBX 10 20 0 -3
BITMAP
0000
0000
0000
0000
0000
0000
0000
e700
6300
6300
6300
ff80
6300
6300
6300
6700
3b80
0000
0000
0000
ENDCHAR
STARTCHAR BARRED_O
ENCODING 179
SWIDTH 505 0
DWIDTH 10 0
BBX 10 20 0 -3
BITMAP
0000
0000
0000
0000
0000
0000
0000
1e00
3300
6180
6180
7f80
6180
6180
6180
3300
1e00
0000
0000
0000
ENDCHAR
STARTCHAR LOWER-CASE_U
ENCODING 180
SWIDTH 505 0
DWIDTH 10 0
BBX 10 20 0 -3
BITMAP
0000
0000
0000
0000
0000
0000
0000
e700
6300
6300
6300
6300
6300
6300
6300
6700
3b80
0000
0000
0000
ENDCHAR
STARTCHAR UPSILON
ENCODING 181
SWIDTH 505 0
DWIDTH 10 0
BBX 10 20 0 -3
BITMAP
0000
0000
0000
0000
0000
0000
0000
f3c0
1200
1200
2100
6180
c0c0
c0c0
c0c0
6180
1e00
0000
0000
0000
ENDCHAR
STARTCHAR LOWER-CASE_O
ENCODING 182
SWIDTH 505 0
DWIDTH 10 0
BBX 10 20 0 -3
BITMAP
0000
0000
0000
0000
0000
0000
0000
1e00
3300
6180
6180
6180
6180
6180
6180
3300
1e00
0000
0000
0000
ENDCHAR
STARTCHAR OPEN_O
ENCODING 183
SWIDTH 505 0
DWIDTH 10 0
BBX 10 20 0 -3
BITMAP
0000
0000
0000
0000
0000
0000
0000
1e00
2300
4180
0180
0180
0180
0180
6180
2300
1e00
0000
0000
0000
ENDCHAR
STARTCHAR TURND_SCRIPT_A
ENCODING 184
SWIDTH 505 0
DWIDTH 10 0
BBX 10 20 0 -3
BITMAP
0000
0000
0000
0000
0000
0000
0000
e600
6b00
7180
6180
6180
6180
6180
6300
7300
6e00
0000
0000
0000
ENDCHAR
STARTCHAR b9
ENCODING 185
SWIDTH 505 0
DWIDTH 10 0
BBX 10 20 0 -3
BITMAP
0000
0000
0000
0000
0000
0000
0000
0000
0000
0000
0000
0000
0000
0000
0000
0000
0000
0000
0000
0000
ENDCHAR
STARTCHAR RIGHTHOOKSCHWA
ENCODING 186
SWIDTH 505 0
DWIDTH 10 0
BBX 10 20 0 -3
BITMAP
0000
0000
0000
0000
0000
0000
0000
3800
4c00
86c0
87c0
0ec0
36c0
c640
c640
6c00
3800
0000
0000
0000
ENDCHAR
STARTCHAR EPSILON_TILDE
ENCODING 187
SWIDTH 505 0
DWIDTH 10 0
BBX 10 20 0 -3
BITMAP
0000
0000
0000
1880
2d00
4600
0000
1e00
3100
6080
3000
1e00
3000
6000
6080
3100
1e00
0000
0000
0000
ENDCHAR
STARTCHAR SCRIPT_A_TILDE
ENCODING 188
SWIDTH 505 0
DWIDTH 10 0
BBX 10 20 0 -3
BITMAP
0000
0000
0000
1880
2d00
4600
0000
1d80
3380
3180
6180
6180
6180
6180
6380
3580
19c0
0000
0000
0000
ENDCHAR
STARTCHAR OE_LIG_TILDE
ENCODING 189
SWIDTH 505 0
DWIDTH 10 0
BBX 10 20 0 -3
BITMAP
0000
0000
0000
1880
2d00
4600
0000
7b80
cec0
cc40
cc40
cfc0
cc00
cc00
cc00
ce40
7b80
0000
0000
0000
ENDCHAR
STARTCHAR OPEN_O_TILDE
ENCODING 190
SWIDTH 505 0
DWIDTH 10 0
BBX 10 20 0 -3
BITMAP
0000
0000
0000
1880
2d00
4600
0000
1e00
2300
6180
0180
0180
0180
0180
4180
2300
1e00
0000
0000
0000
ENDCHAR
STARTCHAR bf
ENCODING 191
SWIDTH 505 0
DWIDTH 10 0
BBX 10 20 0 -3
BITMAP
0000
0000
0000
0000
0000
0000
0000
0000
0000
0000
0000
0000
0000
0000
0000
0000
0000
0000
0000
0000
ENDCHAR
STARTCHAR LOWER-CASE_P
ENCODING 192
SWIDTH 505 0
DWIDTH 10 0
BBX 10 20 0 -3
BITMAP
0000
0000
0000
0000
0000
0000
0000
ee00
7300
6180
6180
6180
6180
6180
7300
6e00
6000
6000
6000
f000
ENDCHAR
STARTCHAR LOWER-CASE_B
ENCODING 193
SWIDTH 505 0
DWIDTH 10 0
BBX 10 20 0 -3
BITMAP
0000
0000
0000
e000
6000
6000
6000
6e00
7300
6180
6180
6180
6180
6180
6180
7300
5e00
0000
0000
0000
ENDCHAR
STARTCHAR LOWER-CASE_T
ENCODING 194
SWIDTH 505 0
DWIDTH 10 0
BBX 10 20 0 -3
BITMAP
0000
0000
0000
0800
0800
1800
1800
7f00
1800
1800
1800
1800
1800
1800
1880
1c80
0f00
0000
0000
0000
ENDCHAR
STARTCHAR LOWER-CASE_D
ENCODING 195
SWIDTH 505 0
DWIDTH 10 0
BBX 10 20 0 -3
BITMAP
0000
0000
0000
0380
0180
0180
0180
1d80
3380
6180
6180
6180
6180
6180
6180
3380
1dc0
0000
0000
0000
ENDCHAR
STARTCHAR LOWER-CASE_K
ENCODING 196
SWIDTH 505 0
DWIDTH 10 0
BBX 10 20 0 -3
BITMAP
0000
0000
0000
e000
6000
6000
6000
6780
6200
6400
6800
7800
6c00
6600
6600
6300
f780
0000
0000
0000
ENDCHAR
STARTCHAR LOWER-CASE_G
ENCODING 197
SWIDTH 505 0
DWIDTH 10 0
BBX 10 20 0 -3
BITMAP
0000
0000
0000
0000
0000
0000
0000
1ec0
3180
6180
6180
6180
6180
3380
1d80
0180
6180
6180
2300
1e00
ENDCHAR
STARTCHAR LOWER-CASE_F
ENCODING 198
SWIDTH 505 0
DWIDTH 10 0
BBX 10 20 0 -3
BITMAP
0000
0000
0000
0f00
1980
1980
1800
7f00
1800
1800
1800
1800
1800
1800
1800
1800
7e00
0000
0000
0000
ENDCHAR
STARTCHAR LOWER-CASE_V
ENCODING 199
SWIDTH 505 0
DWIDTH 10 0
BBX 10 20 0 -3
BITMAP
0000
0000
0000
0000
0000
0000
0000
f3c0
6080
6080
3100
3100
3100
1a00
1a00
0c00
0c00
0000
0000
0000
ENDCHAR
STARTCHAR THETA
ENCODING 200
SWIDTH 505 0
DWIDTH 10 0
BBX 10 20 0 -3
BITMAP
0000
0000
0000
1e00
3300
6180
6180
6180
6180
7f80
6180
6180
6180
6180
6180
3300
1e00
0000
0000
0000
ENDCHAR
STARTCHAR ETH
ENCODING 201
SWIDTH 505 0
DWIDTH 10 0
BBX 10 20 0 -3
BITMAP
0000
0000
4300
3600
1c00
3400
6600
0300
1f00
3380
6180
6180
6180
6180
6180
3300
1e00
0000
0000
0000
ENDCHAR
STARTCHAR LOWER-CASE_S
ENCODING 202
SWIDTH 505 0
DWIDTH 10 0
BBX 10 20 0 -3
BITMAP
0000
0000
0000
0000
0000
0000
0000
3e80
6380
6180
7000
3c00
0f00
4380
6180
7180
5f00
0000
0000
0000
ENDCHAR
STARTCHAR LOWER-CASE_Z
ENCODING 203
SWIDTH 505 0
DWIDTH 10 0
BBX 10 20 0 -3
BITMAP
0000
0000
0000
0000
0000
0000
0000
7f80
6300
4600
0600
0c00
0c00
1800
3080
3180
7f80
0000
0000
0000
ENDCHAR
STARTCHAR ESH
ENCODING 204
SWIDTH 505 0
DWIDTH 10 0
BBX 10 20 0 -3
BITMAP
0000
0000
0380
0580
0400
0c00
0c00
0c00
0c00
0c00
0c00
0c00
0c00
0c00
0c00
0c00
0c00
0800
6800
7000
ENDCHAR
STARTCHAR YOGH
ENCODING 205
SWIDTH 505 0
DWIDTH 10 0
BBX 10 20 0 -3
BITMAP
0000
0000
0000
0000
0000
0000
0000
7f80
6300
4600
0c00
1800
3600
6100
0180
0180
6180
6180
4300
3e00
ENDCHAR
STARTCHAR C_CEDILLA
ENCODING 206
SWIDTH 505 0
DWIDTH 10 0
BBX 10 20 0 -3
BITMAP
0000
0000
0000
0000
0000
0000
0000
1e00
3100
6180
6000
6000
6000
6080
3100
1e00
0800
0e00
0300
0c00
ENDCHAR
STARTCHAR LOWER-CASE_X
ENCODING 207
SWIDTH 505 0
DWIDTH 10 0
BBX 10 20 0 -3
BITMAP
0000
0000
0000
0000
0000
0000
0000
f780
6300
3200
3400
1800
0c00
1600
2600
6300
f780
0000
0000
0000
ENDCHAR
STARTCHAR INVERTED_SC_R
ENCODING 208
SWIDTH 505 0
DWIDTH 10 0
BBX 10 20 0 -3
BITMAP
0000
0000
0000
0000
0000
0000
0000
f780
6100
6200
6200
6400
7f00
6180
6180
6180
ff00
0000
0000
0000
ENDCHAR
STARTCHAR LOWER-CASE_H
ENCODING 209
SWIDTH 505 0
DWIDTH 10 0
BBX 10 20 0 -3
BITMAP
0000
0000
0000
e000
6000
6000
6000
6f00
7180
6180
6180
6180
6180
6180
6180
6180
f3c0
0000
0000
0000
ENDCHAR
STARTCHAR LOWER-CASE_M
ENCODING 210
SWIDTH 505 0
DWIDTH 10 0
BBX 10 20 0 -3
BITMAP
0000
0000
0000
0000
0000
0000
0000
db00
6d80
6d80
6d80
6d80
6d80
6d80
6d80
6d80
edc0
0000
0000
0000
ENDCHAR
STARTCHAR LOWER-CASE_N
ENCODING 211
SWIDTH 505 0
DWIDTH 10 0
BBX 10 20 0 -3
BITMAP
0000
0000
0000
0000
0000
0000
0000
ef00
7180
6180
6180
6180
6180
6180
6180
6180
f3c0
0000
0000
0000
ENDCHAR
STARTCHAR LEFT-HOOK_N
ENCODING 212
SWIDTH 505 0
DWIDTH 10 0
BBX 10 20 0 -3
BITMAP
0000
0000
0000
0000
0000
0000
0000
7700
3980
3180
3180
3180
3180
3180
3180
3180
33c0
3000
f000
e000
ENDCHAR
STARTCHAR ENG
ENCODING 213
SWIDTH 505 0
DWIDTH 10 0
BBX 10 20 0 -3
BITMAP
0000
0000
0000
0000
0000
0000
0000
ee00
7300
6180
6180
6180
6180
6180
6180
f180
0180
3100
3300
1e00
ENDCHAR
STARTCHAR LOWER-CASE_R
ENCODING 214
SWIDTH 505 0
DWIDTH 10 0
BBX 10 20 0 -3
BITMAP
0000
0000
0000
0000
0000
0000
0000
7700
3980
3180
3000
3000
3000
3000
3000
3000
7c00
0000
0000
0000
ENDCHAR
STARTCHAR SMALL_CAP_R
ENCODING 215
SWIDTH 505 0
DWIDTH 10 0
BBX 10 20 0 -3
BITMAP
0000
0000
0000
0000
0000
0000
0000
ff00
6180
6180
6180
7f00
6400
6200
6300
6180
f3c0
0000
0000
0000
ENDCHAR
STARTCHAR INVERTED_R
ENCODING 216
SWIDTH 505 0
DWIDTH 10 0
BBX 10 20 0 -3
BITMAP
0000
0000
0000
0000
0000
0000
0000
0f80
0300
0300
0300
0300
0300
0300
6300
6700
3b80
0000
0000
0000
ENDCHAR
STARTCHAR LOWER-CASE_J
ENCODING 217
SWIDTH 505 0
DWIDTH 10 0
BBX 10 20 0 -3
BITMAP
0000
0000
0000
0180
0180
0000
0000
0f80
0180
0180
0180
0180
0180
0180
0180
0180
0180
6180
6300
3e00
ENDCHAR
STARTCHAR LOWER-CASE_L
ENCODING 218
SWIDTH 505 0
DWIDTH 10 0
BBX 10 20 0 -3
BITMAP
0000
0000
0000
3c00
0c00
0c00
0c00
0c00
0c00
0c00
0c00
0c00
0c00
0c00
0c00
0c00
7f80
0000
0000
0000
ENDCHAR
STARTCHAR TURNED_Y
ENCODING 219
SWIDTH 505 0
DWIDTH 10 0
BBX 10 20 0 -3
BITMAP
0000
0000
0000
0000
0380
04c0
04c0
0800
0c00
0c00
1600
1600
1300
1300
2180
2180
73c0
0000
0000
0000
ENDCHAR
STARTCHAR SMALL_CAP_L
ENCODING 220
SWIDTH 505 0
DWIDTH 10 0
BBX 10 20 0 -3
BITMAP
0000
0000
0000
0000
0000
0000
0000
f800
6000
6000
6000
6000
6000
6080
6080
6180
ff80
0000
0000
0000
ENDCHAR
STARTCHAR TURNED_H
ENCODING 221
SWIDTH 505 0
DWIDTH 10 0
BBX 10 20 0 -3
BITMAP
0000
0000
0000
0000
0000
0000
0000
f3c0
6180
6180
6180
6180
6180
6180
6380
3d80
0180
0180
0180
0380
ENDCHAR
STARTCHAR LOWER-CASE_W
ENCODING 222
SWIDTH 505 0
DWIDTH 10 0
BBX 10 20 0 -3
BITMAP
0000
0000
0000
0000
0000
0000
0000
f3c0
6080
6480
6480
6480
6e80
6a80
7b80
3100
3100
0000
0000
0000
ENDCHAR
STARTCHAR TURNED_W
ENCODING 223
SWIDTH 505 0
DWIDTH 10 0
BBX 10 20 0 -3
BITMAP
0000
0000
0000
0000
0000
0000
0000
2300
2300
7700
5500
5d80
4980
4980
4980
4180
f3c0
0000
0000
0000
ENDCHAR
STARTCHAR V_STROKE(SUP)
ENCODING 240
SWIDTH 505 0
DWIDTH 10 0
BBX 10 20 0 -3
BITMAP
0000
0000
0000
0000
0c00
0c00
0c00
0c00
0000
0000
0000
0000
0000
0000
0000
0000
0000
0000
0000
0000
ENDCHAR
STARTCHAR V_STROKE(INF)
ENCODING 241
SWIDTH 505 0
DWIDTH 10 0
BBX 10 20 0 -3
BITMAP
0000
0000
0000
0000
0000
0000
0000
0000
0000
0000
0000
0000
0000
0000
0000
0000
0c00
0c00
0c00
0c00
ENDCHAR
STARTCHAR LENGTH_MARK
ENCODING 242
SWIDTH 505 0
DWIDTH 10 0
BBX 10 20 0 -3
BITMAP
0000
0000
0000
0000
0000
0000
3e00
1c00
1c00
0800
0000
0000
0000
0000
0800
1c00
1c00
3e00
0000
0000
ENDCHAR
ENDFONT
